<?xml version="1.0" encoding="UTF-8" standalone="no"?>
<!-- Created with Inkscape (http://www.inkscape.org/) -->

<svg
   width="1024"
   height="1024"
   viewBox="0 0 270.93333 270.93333"
   version="1.1"
   id="svg5"
   inkscape:version="1.2.2 (b0a8486541, 2022-12-01)"
   sodipodi:docname="cute-info-home.svg"
   xmlns:inkscape="http://www.inkscape.org/namespaces/inkscape"
   xmlns:sodipodi="http://sodipodi.sourceforge.net/DTD/sodipodi-0.dtd"
   xmlns="http://www.w3.org/2000/svg"
   xmlns:svg="http://www.w3.org/2000/svg">
  <sodipodi:namedview
     id="namedview7"
     pagecolor="#505050"
     bordercolor="#ffffff"
     borderopacity="1"
     inkscape:showpageshadow="0"
     inkscape:pageopacity="0"
     inkscape:pagecheckerboard="1"
     inkscape:deskcolor="#505050"
     inkscape:document-units="mm"
     showgrid="false"
     inkscape:zoom="0.1767767"
     inkscape:cx="-195.16147"
     inkscape:cy="-432.74935"
     inkscape:window-width="1920"
     inkscape:window-height="1048"
     inkscape:window-x="0"
     inkscape:window-y="0"
     inkscape:window-maximized="1"
     inkscape:current-layer="layer1" />
  <defs
     id="defs2" />
  <g
     inkscape:label="Layer 1"
     inkscape:groupmode="layer"
     id="layer1">
    <rect
       style="fill:#e374ab;fill-opacity:1;stroke-width:0.0971133;stroke-opacity:0.781686"
       id="rect404"
       width="270.96344"
       height="28.329359"
       x="0.0025075902"
       y="242.54955"
       ry="7.0024648" />
    <rect
       style="fill:#e374ab;fill-opacity:1;stroke-width:0.0679586;stroke-opacity:0.781686"
       id="rect1167"
       width="30.081089"
       height="124.96449"
       x="0.0098189982"
       y="145.94553"
       ry="2.3937571" />
    <rect
       style="fill:#e374ab;fill-opacity:1;stroke-width:0.0655218;stroke-opacity:0.781686"
       id="rect1169"
       width="27.962456"
       height="124.96449"
       x="242.98209"
       y="145.98654"
       ry="2.5409074" />
    <rect
       style="fill:#e374ab;fill-opacity:1;stroke-width:0.353061;stroke-opacity:0.781686"
       id="rect1244"
       width="93.122414"
       height="53.055725"
       x="126.95971"
       y="166.16873"
       ry="9.0141315" />
    <rect
       style="fill:#e374ab;fill-opacity:1;stroke-width:0.366014;stroke-opacity:0.781686"
       id="rect1255"
       width="51.066647"
       height="103.9782"
       x="55.533894"
       y="166.77452"
       ry="10.387036" />
    <rect
       style="fill:#e374ab;fill-opacity:1;stroke-width:0.0822234;stroke-opacity:0.781686"
       id="rect1264"
       width="30.081089"
       height="182.93144"
       x="109.75048"
       y="-83.872208"
       ry="3.504143"
       transform="rotate(48.360757)" />
    <rect
       style="fill:#e374ab;fill-opacity:1;stroke-width:0.0822234;stroke-opacity:0.781686"
       id="rect1266"
       width="30.081089"
       height="182.93144"
       x="46.045353"
       y="117.48612"
       ry="3.504143"
       transform="rotate(-47.287415)" />
    <path
       style="fill:#c36493;fill-opacity:1;stroke-width:0.3;stroke-opacity:0.781686"
       d="m 111.32069,270.85512 c -1.86151,-0.56552 -3.47811,-1.49881 -5.32857,-2.1535 -0.78222,-0.27673 -1.51132,-0.78565 -2.28889,-1.0922 -0.65036,-0.25641 -1.22755,-0.73964 -1.89292,-0.95877 -0.99272,-0.32692 -2.156176,-0.83486 -2.994135,-1.45761 -0.470527,-0.3497 -0.0619,0.0251 -0.534012,-0.1323 -0.01405,-0.005 -1.250875,-0.92771 -1.251653,-0.92848 -0.06994,-0.0695 -0.06022,-0.19729 -0.132292,-0.26458 -0.08856,-0.0827 -0.228251,-0.0898 -0.325141,-0.16253 -0.419381,-0.31493 -0.762797,-0.73289 -1.182227,-1.0484 -0.29904,-0.22496 -0.454507,-0.5162 -0.666303,-0.79859 -0.183846,-0.24513 -1.221825,-1.04239 -1.515817,-1.22409 -0.555974,-0.34361 -1.18451,-0.55662 -1.788279,-0.85575 -0.338058,-0.16749 -0.895363,-0.60916 -1.225796,-0.69177 -0.630306,-0.15758 -1.0454,-0.47058 -1.643488,-0.70882 -0.664086,-0.26453 -1.386956,-0.42111 -2.062147,-0.66389 -0.456842,-0.16425 -0.844454,-0.43764 -1.302311,-0.59538 -0.479525,-0.1652 -0.975233,-0.27983 -1.458647,-0.42935 -0.583359,-0.18043 -1.163765,-0.57597 -1.758583,-0.6938 -0.13186,-0.0261 -0.273002,0.0332 -0.40327,0 -0.625676,-0.15929 -1.226547,-0.55517 -1.872609,-0.66388 -0.842037,-0.14168 0.06521,0.20736 -0.865661,-0.13229 -0.692534,-0.25269 -1.403557,-0.48905 -2.109351,-0.66388 -0.879055,-0.21775 -1.833298,-1.06788 -2.649871,-1.47866 -0.294045,-0.14792 -0.692592,-0.2379 -0.965671,-0.40055 -0.792538,-0.47207 0.20924,-0.0999 -0.529167,-0.39688 -0.327141,-0.13157 -0.778819,-0.17175 -1.060754,-0.3993 -0.597524,-0.48224 0.07156,-0.14299 -0.561933,-0.45732 -0.649787,-0.32241 -1.35178,-0.52859 -2.022972,-0.79854 -0.493662,-0.19855 -0.04896,-0.0918 -0.663879,-0.3993 -0.588362,-0.29418 -1.331251,-0.43253 -1.944246,-0.66388 -1.256869,-0.47435 -2.520048,-0.92183 -3.709755,-1.51728 -0.374647,-0.18752 -0.824968,-0.22242 -1.202735,-0.40415 -0.459774,-0.22117 -0.880205,-0.48713 -1.32621,-0.72767 -0.813099,-0.43853 -1.717154,-0.74418 -2.542207,-1.15465 -0.516128,-0.25677 -1.113742,-0.68709 -1.68738,-0.82985 -0.08559,-0.0213 -0.180917,0.0279 -0.264583,0 -0.235443,-0.0785 -0.405091,-0.32764 -0.664142,-0.42419 -0.181178,-0.0675 -0.432392,-0.0735 -0.618807,-0.13229 -0.868804,-0.27379 0.145079,0.005 -0.399315,-0.26702 -0.118324,-0.0592 -0.271372,0.0418 -0.396875,0 -0.253174,-0.0844 -0.548203,-0.31503 -0.79375,-0.39688 -0.124899,-0.0416 -0.27928,0.0628 -0.39497,0 -0.245909,-0.13359 -0.444907,-0.29769 -0.692689,-0.42082 -0.11847,-0.0589 -0.271373,0.0418 -0.396875,0 -0.268674,-0.0896 -0.507267,-0.25876 -0.749253,-0.38989 -0.08889,-0.0482 -0.471479,0.0769 -0.532743,0 -0.024,-0.0301 0.02795,-0.089 0,-0.11549 -0.076,-0.072 -0.611736,0 -0.726668,0 -0.841359,0 -4.302604,-0.32409 -4.823865,-0.003 -0.134368,0.0827 -0.582459,-0.11159 -0.688821,0 -0.02122,0.0222 0.02352,0.0724 0,0.0922 -0.06206,0.0523 -1.972054,0 -2.144316,0 -2.736614,0 -5.473231,0 -8.209849,0 -0.409807,0 -3.293996,0.11622 -3.474788,-0.0607 -0.04647,-0.0455 0.03785,-0.21223 0,-0.26628 -0.186587,-0.26646 -0.104217,-1.10318 -0.125275,-1.11668 -0.03467,-0.0222 -0.09471,0.0294 -0.12354,0 -0.143592,-0.14649 0.06084,-0.93172 0,-1.11424 -0.01971,-0.0592 -0.112569,-0.0731 -0.132291,-0.13229 -0.162608,-0.48783 0,-4.15564 0,-5.02787 0,-0.48557 0.0759,-1.06348 -0.09721,-1.49517 -0.09875,-0.24627 -0.109686,-0.0116 -0.231881,-0.25829 -0.03828,-0.0773 0.06098,-0.19775 0,-0.25874 -0.0298,-0.0298 -0.09713,0.0303 -0.126439,0 -0.0862,-0.0891 -0.558112,-1.11067 -0.651568,-1.29758 -0.07854,-0.15709 -0.300855,-0.25112 -0.398553,-0.39856 -0.375451,-0.56661 -0.795604,-1.24791 -1.050388,-1.81827 -0.221882,-0.4967 -0.02201,0.10646 -0.260749,-0.13229 -0.03118,-0.0312 0.01797,-0.092 0,-0.13229 -0.0776,-0.17393 -0.28716,-0.28909 -0.390003,-0.44335 -0.29146,-0.0666 -0.06993,-0.27215 -0.132292,-0.39688 -0.457332,-0.91466 0.192353,0.64733 -0.265342,-0.26292 -0.05598,-0.11133 -0.07492,-0.28144 -0.130709,-0.39353 -0.146131,-0.29357 -0.556543,-0.52686 -0.657324,-0.85047 -0.02622,-0.0842 0.02789,-0.18092 0,-0.26458 -0.04955,-0.14867 -0.313272,-0.26237 -0.396875,-0.39688 -0.214729,-0.34547 -0.551849,-1.16972 -0.822899,-1.44409 -0.0693,-0.0702 -0.19249,-0.065 -0.264583,-0.13229 -0.263571,-0.24595 -0.364969,-0.66617 -0.560036,-0.95789 -0.205267,-0.30697 -0.502431,-0.53294 -0.658301,-0.84468 -0.275283,-0.55057 0.0091,0.14142 -0.264583,-0.1323 -0.316088,-0.31608 -0.524466,-0.79061 -0.926042,-1.05833 -0.08204,-0.0547 -0.194859,-0.0626 -0.264583,-0.13229 -0.32131,-0.32131 0.03934,-0.19426 -0.264583,-0.39688 -0.589944,-0.39329 -1.091771,-0.92789 -1.650505,-1.3549 -0.265404,-0.20283 -0.574379,-0.28022 -0.825733,-0.53158 -0.759832,-0.75983 0.666624,0.29361 -0.399298,-0.53158 -0.144706,-0.11203 -0.332438,-0.16753 -0.461664,-0.29711 -0.07684,-0.0771 -0.07074,-0.20872 -0.132291,-0.29847 -0.250093,-0.36463 -0.599601,-0.67751 -0.861406,-1.02765 -0.217674,-0.29111 -0.636296,-0.47881 -0.831337,-0.70146 -0.142418,-0.16258 -0.14061,-0.41555 -0.267006,-0.59087 -0.322906,-0.4479 -0.66014,-0.86282 -0.953486,-1.33495 -0.06091,-0.098 -0.383189,-0.42675 -0.399297,-0.45721 -0.234547,-0.44352 -0.29011,-0.78462 -0.700192,-1.1947 -0.113218,-0.11322 -0.288581,-0.15134 -0.399297,-0.267 -0.300508,-0.45103 -0.27908,-0.47227 -0.628442,-0.82314 -0.584306,-0.58682 -1.360181,-1.06237 -2.081672,-1.38785 -0.2437611,-0.10997 -0.4292613,-0.41307 -0.6614586,-0.52917 -0.312112,-0.15605 -0.6343835,-0.39833 -0.9520576,-0.55568 -0.7066756,-0.35003 0.7716025,0.15004 -0.394404,-0.2901 -0.1369076,-0.0517 -0.2959428,-0.068 -0.4245946,-0.13229 -0.2772492,-0.13863 -0.5193935,-0.58797 -0.8176665,-0.68592 -0.083792,-0.0275 -0.1809147,0.0279 -0.2645833,0 -0.2955132,-0.0985 -0.7594571,-0.77416 -1.0632022,-0.92604 -0.2516547,-0.12583 -0.5816984,-0.42704 -0.8157692,-0.52423 -0.047997,-0.0199 -0.1158819,0.0332 -0.1559094,0 -0.033146,-0.0274 0,-0.0861 0,-0.1291 -0.044097,-0.0441 -0.080548,-0.0975 -0.1322917,-0.1323 -0.088194,-0.0449 -0.1763887,-0.0898 -0.2645833,-0.13471 -0.04466,0 -0.09394,0.0198 -0.1339792,0 -0.2514303,-0.12422 -0.4037256,-0.39319 -0.6540539,-0.52102 -0.1178888,-0.0602 -0.4372055,-0.1749 -0.5228201,-0.25894 -0.030712,-0.0301 0.030285,-0.0985 0,-0.1291 -0.040834,-0.0412 -0.3459995,-0.0708 -0.3868224,-0.11167 -0.05385,-0.0538 -0.069502,-0.1862 -0.1273501,-0.23335 -0.131257,-0.10699 -0.5227463,-0.11402 -0.6413045,-0.23033 -0.029904,-0.0293 0.030099,-0.0965 0,-0.12568 -0.1782109,-0.17253 -0.8072789,-0.25443 -1.10961417,-0.36832 -0.11593396,-0.0437 -0.48020181,-0.3087 -0.5415044,-0.25969 -0.04341592,0.0347 -0.01392905,1.1082 -0.11322791,1.17611 -0.03139581,0.0215 -0.08884848,-0.0284 -0.11410802,0 -0.0351197,0.0395 0,1.66113 0,1.81507 0,0.41454 0.11560426,1.05229 0.26384855,1.40888 0.09879901,0.23766 -0.11610795,0.62147 0,0.84988 0.02825941,0.0556 0.10440214,0.0765 0.13229167,0.13229 0.15524093,0.31048 0,1.14 0,1.49639 0,0.48528 0.12582632,2.91462 0,3.16627 -0.17937613,0.35875 -0.13229167,0.74487 -0.13229167,1.18093 0,0.36639 -0.0197975,0.58949 -0.13470592,0.92846 -0.14012056,0.41335 0.1945747,1.07465 0,1.46147 -0.0280232,0.0557 -0.10440213,0.0765 -0.13229166,0.1323 -0.14755812,0.29511 0,1.82426 0,2.2444 0,0.48767 -0.15302653,1.30217 0,1.76014 0.0197082,0.059 0.10385675,0.0766 0.13154074,0.13229 0.10542112,0.21204 -0.10588249,0.58198 0,0.79375 0.02788953,0.0558 0.11257079,0.0731 0.13229166,0.13229 0.09177896,0.27534 -0.1387778,0.76629 0,1.0201 0.36264174,0.66324 0.1339873,1.93765 0.1339873,2.73284 0,0.21349 0.0724352,1.46457 0,1.57099 -0.0367654,0.054 -0.12439494,0.061 -0.15671685,0.11775 -0.15960682,0.28042 0.14525964,0.81598 0,1.10549 -0.02781176,0.0554 -0.10388411,0.076 -0.13155689,0.13156 -0.10644133,0.21347 -0.08559269,4.3044 0,4.56118 0.03118144,0.0935 0.10837659,0.16892 0.13229166,0.26458 0.18028573,0.72115 -0.19601333,1.57084 0.13229167,2.22563 0.16651674,0.33211 0,1.29297 0,1.6786 0,0.5855 0.15361442,2.18368 0,2.64542 -0.0198677,0.0597 -0.11260583,0.0749 -0.13229167,0.13471 -0.13536411,0.41105 0,1.46931 0,1.9569 0,0.52328 -0.16401307,1.35735 0,1.84938 0.03118145,0.0935 0.10111022,0.17104 0.13229167,0.26459 0.15176188,0.45528 -0.18552054,2.04612 0,2.36668 0.32207325,0.55651 0.1322513,2.31772 0.1322513,3.03144 0,1.999 0,3.99801 0,5.99702 0,1.79078 0,3.58156 0,5.37234 0,0.80058 0.21216355,2.08354 -0.12982897,2.76266 -0.10628009,0.21106 0,1.39501 0,1.64513 0,0.50374 -0.16354875,2.05523 0,2.44453 0.06522,0.15526 0.18378333,0.51613 0.33673655,0.59455 0.18402432,0.0943 0.11614364,-0.1646 0.26458333,0.13229 0.043388,0.0868 0.069627,0.31726 0.12910227,0.38492 0.0678927,0.0772 0.25406066,0.0316 0.32396276,0.10366 0.025936,0.0267 -0.028232,0.0874 0,0.11176 0.058552,0.0504 0.2944511,0.0777 0.3596114,0.12568 0.043871,0.0323 0.1016253,0.15819 0.2050101,0.21627 0.1305023,0.0733 0.6721692,0.12028 0.7114876,0.16838 0.023166,0.0283 -0.028018,0.0863 0,0.1098 0.1901899,0.15984 0.7288868,-0.12914 0.9463005,0 0.049502,0.0294 0.062345,0.10345 0.1131795,0.13047 0.2033966,0.10818 0.5727054,-0.1033 0.7793048,0 0.055779,0.0279 0.076513,0.1044 0.1322917,0.13229 0.1733052,0.0867 0.4948015,-0.0951 0.6629034,0 0.052953,0.03 0.077407,0.0995 0.1322917,0.12575 0.1493213,0.0714 0.6709905,-0.11734 0.7771651,0 0.029036,0.0321 -0.030887,0.0995 0,0.12984 0.032376,0.0318 0.3131439,0 0.3660791,0 0.7183676,0 1.1170409,0.0341 1.7249431,-0.24953 0.064095,-0.0299 0.1687642,0.0558 0.2121884,0 0.022667,-0.0291 -0.027626,-0.0863 0,-0.11076 0.055911,-0.0496 0.1716916,0.0532 0.2241545,0 0.023548,-0.0238 -0.026395,-0.0799 0,-0.10062 0.1261221,-0.0989 0.4640363,0.0705 0.612277,0 0.418066,-0.19894 0.9495197,-0.0876 1.4094097,-0.24095 0.452536,-0.15084 1.588387,0 2.116667,0 1.452964,0 2.905927,0 4.358891,0 0.658675,0 3.109957,-0.15397 3.571875,0 0.09354,0.0312 0.167894,0.11295 0.264583,0.13229 0.148106,0.0296 4.907089,0.25685 5.156218,0.13229 0.05578,-0.0279 0.07313,-0.11255 0.132292,-0.13229 0.466353,-0.15545 2.93795,0 3.571876,0 2.425345,0 4.850693,0 7.276041,0 0.836446,0 3.866954,-0.14854 4.41411,0 0.140134,0.038 0.256106,0.14398 0.396875,0.1796 0.550466,0.13927 1.204479,-0.0818 1.768184,0 0.223467,0.0324 0.440425,0.10228 0.663895,0.13472 0.842473,0.12224 1.793171,0 2.645833,0 1.797516,0 3.595034,0 5.39255,0 5.512152,0 11.024306,0 16.536458,0 1.455208,0 2.910417,0 4.365625,0 0.519065,0 1.213874,-0.11557 1.719792,0 0.110908,0.0254 0.20253,0.11279 0.314613,0.13229 0.939229,0.16336 2.34315,0 3.356433,0 2.425345,0 4.850693,0 7.276041,0 1.983611,0 3.967221,0 5.950831,0 0.706245,0 2.167962,-0.15253 2.778125,0 0.350671,0.0877 0.539901,0.1323 0.926042,0.1323 0.366625,0 0.582038,0.0463 0.926042,0.13229 0.676817,0.1692 3.383999,-0.2227 3.829374,0 0.0558,0.0279 0.0731,0.11258 0.13229,0.13229 0.44302,0.14766 1.60954,0 2.11667,0 1.71979,0 3.43958,0 5.15937,0 1.05833,0 2.11667,0 3.175,0 0.24646,0 0.49292,0 0.73938,0 0.0569,0 0.19747,0.0501 0.17056,0 -0.54337,-1.01113 -0.87783,-0.92001 0.40078,-0.12679 0.0465,0.0289 -0.0266,-0.10681 -0.0487,-0.1569 -0.002,-0.005 0.002,-0.22251 0,-0.2245 -0.20792,-0.19756 -0.55724,-0.13763 -0.8308,-0.22378 z"
       id="path1331" />
    <path
       style="fill:#c36493;fill-opacity:1;stroke-width:0.3;stroke-opacity:0.781686"
       d="m 163.26562,219.19514 c -0.31585,-0.39463 -0.56925,-0.82614 -0.85729,-1.23838 -0.14564,-0.20845 -0.36221,-0.37901 -0.49423,-0.59265 -0.0367,-0.0593 -0.0226,-0.14401 -0.0661,-0.19844 -0.05,-0.0625 -0.14186,-0.0781 -0.19965,-0.1335 -0.2657,-0.25476 -0.0603,-0.11793 -0.2152,-0.34927 -0.11176,-0.16693 -0.29183,-0.28555 -0.41243,-0.44376 -0.0514,-0.0674 -0.0802,-0.15047 -0.13349,-0.21637 -0.23416,-0.28965 -0.55782,-0.52145 -0.82099,-0.78462 -0.2381,-0.2381 -0.51264,-0.6402 -0.75194,-0.83367 -0.53336,-0.43122 -1.0571,-0.86364 -1.60037,-1.28356 -0.31949,-0.24695 0.0393,-0.0237 -0.39878,-0.38177 -0.18817,-0.15383 -0.40922,-0.27906 -0.60017,-0.43312 -0.098,-0.079 -0.16882,-0.18831 -0.26705,-0.26703 -0.18089,-0.14498 -0.41662,-0.2667 -0.58078,-0.43061 -0.0566,-0.0566 -0.0768,-0.14313 -0.1335,-0.19964 -0.12911,-0.12865 -0.27821,-0.23552 -0.4179,-0.35258 -0.29635,-0.24831 -0.67268,-0.43485 -0.95064,-0.69929 -0.0581,-0.0553 -0.0774,-0.14316 -0.13431,-0.19964 -0.10409,-0.10323 -0.21993,-0.19425 -0.33635,-0.28333 -0.51757,-0.39601 0.26356,0.33221 -0.29801,-0.20028 -0.17084,-0.16198 -0.37044,-0.34159 -0.52112,-0.52005 -0.0522,-0.0618 -0.0763,-0.14602 -0.13471,-0.20206 -0.0846,-0.0811 -0.44821,-0.29954 -0.52793,-0.37953 -0.16897,-0.16956 -0.28607,-0.42423 -0.45138,-0.599 -0.40049,-0.42342 0.17127,0.38535 -0.26458,-0.19844 -0.52106,-0.69793 -1.2048,-1.34269 -1.90194,-1.88486 -1.19496,-0.92933 -2.20666,-2.04526 -3.36191,-3.02112 -0.0655,-0.0553 -0.15403,-0.0786 -0.21992,-0.1335 -0.78684,-0.65555 0.42753,0.23948 -0.4365,-0.43369 -0.1404,-0.10938 -0.32338,-0.16112 -0.45215,-0.28397 -0.45072,-0.42999 0.14714,-0.004 -0.2658,-0.33194 -0.18039,-0.1434 -0.42071,-0.26373 -0.58314,-0.42616 -0.0566,-0.0566 -0.0755,-0.14445 -0.13349,-0.19964 -0.0618,-0.0589 -0.15186,-0.0805 -0.21779,-0.13471 -0.26957,-0.22168 -0.55591,-0.48665 -0.80206,-0.73328 -0.16259,-0.16292 -0.32728,-0.49939 -0.53762,-0.60456 -0.26543,-0.13271 -0.46179,-0.35884 -0.70491,-0.54653 -0.36629,-0.28278 -0.82499,-0.45467 -1.20519,-0.71596 -0.1163,-0.0799 -0.18145,-0.22308 -0.30161,-0.29707 -0.0594,-0.0366 -0.13874,-0.0301 -0.19843,-0.0661 -0.13795,-0.0833 -0.25874,-0.25491 -0.40051,-0.33193 -0.20636,-0.11213 -0.47397,-0.16347 -0.67982,-0.28014 -0.0549,-0.0311 -0.0848,-0.0947 -0.13553,-0.1323 -0.16446,-0.12185 -0.3798,-0.17033 -0.5453,-0.28013 -0.0552,-0.0366 -0.0797,-0.10813 -0.13229,-0.14843 -0.13805,-0.10573 -0.33731,-0.15863 -0.47858,-0.26458 -0.23566,-0.17674 -0.46298,-0.37731 -0.70759,-0.54651 -0.19236,-0.13306 -0.40413,-0.29822 -0.60166,-0.41442 -0.0611,-0.0359 -0.14161,-0.0292 -0.20208,-0.0661 -0.11983,-0.0733 -0.19955,-0.19935 -0.31304,-0.28212 -0.73373,-0.53518 -1.49421,-1.0162 -2.2177,-1.56219 -0.11321,-0.0854 -0.20312,-0.19852 -0.31275,-0.2885 -0.35773,-0.29364 -0.77973,-0.51341 -1.14646,-0.79507 -0.33914,-0.26048 -0.58225,-0.52034 -0.94561,-0.77044 -0.0999,-0.0687 -0.20878,-0.12763 -0.29449,-0.21334 -0.0349,-0.0349 -0.0295,-0.0993 -0.0661,-0.13229 -0.19452,-0.17538 -0.48924,-0.25152 -0.6818,-0.4312 -0.036,-0.0336 -0.0312,-0.0975 -0.0661,-0.1323 -0.006,-0.18586 -0.15079,-0.0165 -0.20086,-0.0661 -0.035,-0.0347 -0.0313,-0.0974 -0.0661,-0.13229 -0.16328,-0.16328 -0.43733,-0.23769 -0.59894,-0.3993 -0.0349,-0.0349 -0.0312,-0.0975 -0.0661,-0.13229 -0.083,-0.0824 -0.24696,-0.15418 -0.34745,-0.21274 -0.51045,-0.29744 -1.00654,-0.61284 -1.56724,-0.80826 -0.11706,-0.0408 -0.75758,-0.41801 -0.76769,-0.41025 -0.006,0.005 0.0179,0.96916 0.0476,1.02696 0.0141,0.0275 0.052,0.0377 0.0658,0.0653 0.0597,0.11931 -0.0585,0.32686 0,0.44688 0.0773,0.15863 0.0626,-0.0192 0.0626,0.13001 0,0.36884 -0.0358,0.75024 0.0661,1.09995 0.0478,0.16402 0,0.42175 0,0.59531 0,0.50475 0,1.0095 0,1.51425 0,1.53174 0,3.06347 0,4.59521 0,0.0901 -0.0619,1.02012 -0.0653,1.0266 -0.0144,0.0275 -0.0548,0.0378 -0.0642,0.0674 -0.0959,0.29988 0.0751,0.64738 -0.0661,0.92725 -0.0589,0.11675 0,0.64671 0,0.80657 0,0.59519 0,1.19038 0,1.78558 0,2.01544 0,4.03089 0,6.04633 0,0.77145 0,1.54291 0,2.31437 0,0.2809 -0.0522,0.62257 0.0653,0.85892 0.0475,0.0955 -0.0536,0.27493 0,0.36653 0.0149,0.0255 0.0565,0.0311 0.0662,0.059 0.0216,0.0625 -0.0234,0.13658 0,0.19844 0.0278,0.0733 0.19552,0.62346 0.21067,0.63664 0.0123,0.0107 0.0391,-0.0129 0.0491,0 0.0249,0.0322 -0.0273,0.0919 0,0.12201 0.0119,0.0132 0.042,-0.0138 0.0532,0 0.0296,0.0363 0.0419,0.15 0.0643,0.19519 0.0477,0.0961 0.15237,0.17074 0.19723,0.26201 0.0598,0.12173 0.13524,0.0107 0.19587,0.13229 0.0751,0.15058 0.25166,0.26918 0.3279,0.42071 0.01,0.0194 -0.0154,0.0499 0,0.0653 0.0154,0.0154 0.0459,-0.01 0.0653,0 0.14656,0.0737 0.0203,0.0406 0.0661,0.13229 0.0397,0.0794 0.15819,0.11775 0.19769,0.19769 0.0301,0.061 0.0351,0.15658 0.0627,0.21857 0.07,0.15752 0.23726,0.26774 0.31215,0.41479 0.0246,0.0484 0.027,0.18021 0.0567,0.22035 0.0112,0.0152 0.0443,-0.0143 0.0567,0 0.0299,0.0346 0.0441,0.15173 0.0655,0.19696 0.0303,0.064 0.0956,0.0675 0.1268,0.13076 0.0439,0.0891 0.11908,0.31697 0.17497,0.37285 0.13412,0.13411 -0.008,-0.21015 0.12926,0.0661 0.0197,0.0397 0.17662,0.30754 0.19286,0.32433 0.0259,0.0268 0.10293,0.0375 0.12596,0.0653 0.0323,0.0391 -0.0318,0.10936 0,0.14858 0.0125,0.0155 0.0461,-0.0145 0.0598,0 0.0427,0.0455 0.0258,0.14664 0.11819,0.19246 0.14218,0.0705 0.24413,0.25141 0.39101,0.32486 0.0619,0.0309 0.20275,0.0728 0.24972,0.11547 0.0141,0.0128 -0.0144,0.0447 0,0.0572 0.024,0.0209 0.21341,0.0462 0.22421,0.0619 0.012,0.0174 -0.015,0.0487 0,0.0636 0.0554,0.055 0.76821,0.2725 0.91997,0.34786 0.1589,0.0789 0.29884,0.17905 0.45683,0.25871 0.036,0.0181 0.0853,-0.0188 0.12091,0 0.0272,0.0143 0.0438,0.0433 0.0657,0.0649 0.0208,0.0264 0.0331,0.0628 0.0625,0.0791 0.11204,0.0622 0.27685,0.0786 0.39536,0.13106 0.15637,0.0692 0.29784,0.17106 0.44344,0.24896 0.0343,0.0219 0.0841,-0.0186 0.1192,0 0.15112,0.08 0.32456,0.14066 0.5032,0.18569 0.0641,0.0162 0.13716,-0.0249 0.19844,0 0.0478,0.0195 0.0827,0.0664 0.13229,0.0807 0.14758,0.0427 0.32837,-0.0373 0.47757,0 0.14089,0.0352 0.26142,0.10806 0.39687,0.14741 0.1254,0.0364 0.28825,-0.0412 0.412,0 0.0296,0.01 0.0359,0.0586 0.0662,0.0661 0.22807,0.057 0.49689,-0.0461 0.7276,0 0.0483,0.01 0.0845,0.0542 0.13229,0.0662 0.41709,0.10427 1.4132,-0.0552 1.80757,-0.14785 0.25096,-0.059 0.5407,0.0507 0.79375,0 0.0758,-0.0152 0.14076,-0.0679 0.21658,-0.0831 0.23534,-0.0471 0.55358,0 0.79375,0 0.66146,0 1.32292,0 1.98438,0 0.43013,0 0.92142,-0.0677 1.32291,0.0661 0.15924,0.0531 0.36769,-0.0469 0.52917,0 0.0559,0.0162 0.10476,0.0534 0.16152,0.0661 0.4317,0.0972 1.14958,-0.0541 1.52135,0.13229 0.1361,0.0682 0.88133,0 1.08172,0 0.88194,0 1.76389,0 2.64583,0 0.48229,0 0.99778,0.0482 1.45521,-0.0661 0.21068,-0.0527 0.51111,0 0.72761,0 0.58455,0 1.16909,0 1.75364,0 0.3579,0 1.35241,-0.0803 1.61383,0 0.0495,0.0152 0.0826,0.0669 0.13229,0.0813 0.15555,0.045 0.43904,-0.0751 0.58547,0 0.17223,0.0883 0.34065,0.008 0.52263,0.0653 0.39447,0.1232 0.86199,0.0661 1.28055,0.0661 0.25908,0 0.83669,-0.0739 1.05834,0 0.46471,0.1549 1.07124,0.0661 1.5708,0.0661 0.16046,0 1.46271,0.0553 1.57538,0 0.17839,-0.0876 0.40755,-0.10757 0.58769,-0.19764 0.059,-0.0295 0.13521,0.0209 0.1977,0 0.0296,-0.01 0.0362,-0.0575 0.0662,-0.0661 0.0945,-0.0273 0.19676,0 0.29515,0 0.15572,0 0.46062,-0.19402 0.57046,-0.26145 z"
       id="path1605" />
    <path
       style="fill:#e682b3;fill-opacity:1;stroke-width:0.102689;stroke-opacity:0.781686"
       id="path1613"
       sodipodi:type="arc"
       sodipodi:cx="206.19061"
       sodipodi:cy="177.99898"
       sodipodi:rx="10.08796"
       sodipodi:ry="9.5888081"
       sodipodi:start="0"
       sodipodi:end="6.2831722"
       sodipodi:arc-type="slice"
       d="m 216.27857,177.99898 a 10.08796,9.5888081 0 0 1 -10.08792,9.58881 10.08796,9.5888081 0 0 1 -10.088,-9.58875 10.08796,9.5888081 0 0 1 10.08786,-9.58887 10.08796,9.5888081 0 0 1 10.08806,9.58868 l -10.08796,1.3e-4 z" />
  </g>
</svg>
